<svg width="190" height="33" viewBox="0 0 190 33" fill="none" xmlns="http://www.w3.org/2000/svg">
<path d="M34.554 16.8808C34.6091 14.5408 34.2119 12.2007 33.2523 10.0652C27.9468 -1.69796 12.7031 0.221272 6.63079 0.256668H0V32.9426H15.6881C18.0046 32.3605 28.9576 26.9411 28.3165 15.288H13.765V20.3575H22.0161C19.1727 29.6233 8.39271 27.5271 5.41947 27.7001C5.41947 25.7298 5.41947 12.9362 5.41947 5.53456H6.46954V27.004H11.712V5.67614C11.712 5.67614 28.3991 3.58386 29.3666 15.288C30.4757 27.7748 18.8777 32.9465 18.8777 32.9465C18.8777 32.9465 34.1804 32.9465 34.5501 16.8848L34.554 16.8808Z" fill="#A3A3A3"/>
<path d="M59.1815 24.6797H61.0457V29.9812C60.3732 30.5358 59.5905 30.9644 58.6978 31.2633C57.805 31.5622 56.8729 31.7117 55.9015 31.7117C54.5289 31.7117 53.294 31.4089 52.1928 30.8111C51.0916 30.2093 50.2303 29.3795 49.6011 28.3255C48.9718 27.2715 48.6611 26.0838 48.6611 24.7623C48.6611 23.4409 48.9758 22.2532 49.6011 21.1913C50.2303 20.1294 51.0956 19.3035 52.2007 18.7057C53.3058 18.1119 54.5525 17.813 55.9369 17.813C57.0224 17.813 58.0095 17.99 58.8983 18.3479C59.7832 18.7057 60.5383 19.2249 61.1597 19.9092L59.9563 21.1127C58.8708 20.0626 57.5572 19.5395 56.0156 19.5395C54.9812 19.5395 54.0531 19.7637 53.2311 20.2081C52.4091 20.6564 51.7642 21.2739 51.3001 22.0723C50.8321 22.8667 50.6 23.7634 50.6 24.7623C50.6 25.7613 50.8321 26.6344 51.3001 27.4327C51.7681 28.2272 52.4091 28.8525 53.2311 29.3048C54.0531 29.7571 54.9734 29.9852 55.9959 29.9852C57.2112 29.9852 58.273 29.6941 59.1815 29.1121V24.6876V24.6797Z" fill="#A3A3A3"/>
<path d="M73.4105 28.1563H66.1898L64.6953 31.5543H62.6974L68.8523 17.9663H70.7755L76.95 31.5543H74.9128L73.4183 28.1563H73.4105ZM72.7301 26.6028L69.8001 19.9445L66.8701 26.6028H72.734H72.7301Z" fill="#A3A3A3"/>
<path d="M91.5607 31.5543L91.541 21.6553L86.6289 29.9064H85.7361L80.824 21.7143V31.5582H78.9598V17.9663H80.5526L86.2199 27.5192L91.8124 17.9663H93.4052L93.4249 31.5543H91.5607Z" fill="#A3A3A3"/>
<path d="M107.363 29.8632V31.5504H97.4993V17.9663H107.088V19.6535H99.4382V23.8263H106.254V25.4781H99.4382V29.8671H107.359L107.363 29.8632Z" fill="#A3A3A3"/>
<path d="M115.728 17.9663H121.454C122.89 17.9663 124.164 18.2495 125.277 18.8197C126.39 19.39 127.255 20.1884 127.869 21.2188C128.482 22.2492 128.793 23.429 128.793 24.7623C128.793 26.0955 128.486 27.2754 127.869 28.3058C127.255 29.3362 126.39 30.1346 125.277 30.7048C124.164 31.2751 122.89 31.5582 121.454 31.5582H115.728V17.9663ZM121.34 29.8671C122.441 29.8671 123.409 29.6547 124.243 29.2261C125.076 28.7974 125.721 28.1996 126.174 27.4288C126.626 26.6579 126.854 25.7691 126.854 24.7583C126.854 23.7476 126.626 22.8588 126.174 22.0879C125.721 21.3171 125.076 20.7193 124.243 20.2906C123.409 19.8619 122.441 19.6496 121.34 19.6496H117.671V29.8593H121.34V29.8671Z" fill="#A3A3A3"/>
<path d="M141.626 29.8632V31.5504H131.762V17.9663H141.351V19.6535H133.701V23.8263H140.517V25.4781H133.701V29.8671H141.622L141.626 29.8632Z" fill="#A3A3A3"/>
<path d="M145.771 31.2319C144.819 30.9133 144.072 30.5043 143.529 30.0009L144.249 28.4868C144.768 28.9509 145.429 29.3323 146.239 29.6234C147.049 29.9144 147.879 30.0599 148.733 30.0599C149.857 30.0599 150.699 29.8711 151.257 29.4857C151.812 29.1042 152.091 28.5969 152.091 27.9637C152.091 27.4996 151.938 27.1181 151.635 26.8271C151.332 26.5361 150.955 26.3119 150.51 26.1585C150.062 26.0012 149.433 25.8282 148.619 25.6355C147.596 25.3916 146.77 25.1439 146.145 24.8961C145.516 24.6522 144.981 24.2708 144.532 23.7595C144.084 23.2482 143.864 22.56 143.864 21.6908C143.864 20.9672 144.056 20.3143 144.438 19.7283C144.819 19.1463 145.398 18.6782 146.176 18.3322C146.955 17.9821 147.918 17.8091 149.071 17.8091C149.873 17.8091 150.664 17.9113 151.438 18.1198C152.213 18.3282 152.882 18.6232 153.436 19.0125L152.795 20.566C152.225 20.2042 151.615 19.9289 150.97 19.7401C150.321 19.5513 149.688 19.4569 149.067 19.4569C147.966 19.4569 147.14 19.6575 146.593 20.0587C146.043 20.4598 145.767 20.979 145.767 21.6122C145.767 22.0802 145.921 22.4577 146.231 22.7487C146.542 23.0398 146.927 23.2679 147.388 23.4291C147.848 23.5904 148.473 23.7634 149.26 23.9443C150.282 24.1921 151.104 24.4359 151.725 24.6837C152.347 24.9315 152.882 25.3051 153.326 25.8085C153.774 26.3119 153.995 26.9923 153.995 27.8457C153.995 28.5576 153.802 29.2065 153.413 29.7964C153.023 30.3863 152.437 30.8504 151.647 31.1926C150.856 31.5347 149.885 31.7078 148.737 31.7078C147.714 31.7078 146.727 31.5505 145.775 31.2319H145.771Z" fill="#A3A3A3"/>
<path d="M156.826 17.9663H158.769V31.5543H156.826V17.9663Z" fill="#A3A3A3"/>
<path d="M174.528 17.9663V31.5543H172.935L164.783 21.4194V31.5543H162.84V17.9663H164.433L172.585 28.1013V17.9663H174.528Z" fill="#A3A3A3"/>
<path d="M188.022 24.6797H189.886V29.9812C189.213 30.5358 188.431 30.9644 187.538 31.2633C186.645 31.5622 185.713 31.7117 184.742 31.7117C183.369 31.7117 182.134 31.4089 181.033 30.8111C179.932 30.2093 179.071 29.3795 178.441 28.3255C177.812 27.2715 177.501 26.0838 177.501 24.7623C177.501 23.4409 177.816 22.2532 178.441 21.1913C179.071 20.1294 179.936 19.3035 181.041 18.7057C182.146 18.1119 183.393 17.813 184.777 17.813C185.863 17.813 186.85 17.99 187.739 18.3479C188.623 18.7057 189.379 19.2249 190 19.9092L188.796 21.1127C187.711 20.0626 186.397 19.5395 184.856 19.5395C183.821 19.5395 182.893 19.7637 182.071 20.2081C181.249 20.6564 180.604 21.2739 180.14 22.0723C179.672 22.8667 179.44 23.7634 179.44 24.7623C179.44 25.7613 179.672 26.6344 180.14 27.4327C180.608 28.2272 181.249 28.8525 182.071 29.3048C182.893 29.7571 183.814 29.9852 184.836 29.9852C186.051 29.9852 187.113 29.6941 188.022 29.1121V24.6876V24.6797Z" fill="#A3A3A3"/>
</svg>
