<?xml version="1.0" encoding="UTF-8"?>
<svg id="_Слой_1" data-name="Слой 1" xmlns="http://www.w3.org/2000/svg" viewBox="0 0 6512 1470">
  <defs>
    <style>
      .cls-1 {
        fill: #fff;
      }

      .cls-2 {
        fill: #959398;
      }

      .cls-3 {
        fill: #949298;
      }

      .cls-4 {
        fill: #959399;
      }
    </style>
  </defs>
  <path class="cls-3" d="M6128.4,1201.76c4.11-6.59,8.23-13.18,13.21-21.17-11.25,1.75-19.56-2.5-28.12-5.51-10.61-3.73-21.29-6.66-32.65-6.92-11.05-.25-21.04-4.72-31.14-8.64-.74-.13-1.46-.27-2.19-.41,.43,.43,.85,.86,1.28,1.29,2.82,3.05,5.63,6.11,8.61,9.34-12.73-.77-15.8-2.21-27.74-13.27-1.57,9.63,4.51,17.88,2.95,29.33-4.16-6.37-7.08-10.85-11.34-17.36-3.09,16.23-.5,30.7-3.08,44.59-.73,.11-1.46,.21-2.19,.32-1.63-6.62-3.25-13.23-5.16-21.01-11.89,43.2-24.28,84.5-57.35,115.88,.78-2.28,1.48-4.59,2.34-6.84,3.27-8.58,6.6-17.15,9.9-25.72,.42-.74,.87-1.46,1.22-2.23,.05-.11-.38-.43-.59-.66-.43,.77-.87,1.55-1.3,2.32-1.43,.68-2.87,1.36-5.73,2.73,.77-5.33,1.38-9.58,1.99-13.84-12.77,21.7-30.77,38.05-51.32,51.8-20.08,13.43-39.94,27.39-64.7,32.2,1.62-2.3,3.25-4.6,4.87-6.9,.21-.42,.41-.84,.62-1.26-.21,.42-.41,.84-.62,1.25-2.26,.23-4.71-.02-6.77,.76-24.67,9.35-50.3,10.07-76.26,9.49-35.28-.78-68.51-10.38-101.11-22.57-8.87-3.32-16.96-8.92-25.07-14.01-10.65-6.69-21.1-13.72-31.36-20.99-6.25-4.43-12.3-8.44-20.24-9.68-3.8-.59-8.01-3.52-10.5-6.63-14.73-18.34-28.86-37.15-37.14-59.53-1.55-4.19-3.72-7.25-7.96-9.49-3.25-1.72-5.81-5.16-8.04-8.3-4.93-6.94-10.79-11.78-19.88-10.33-4.51,.72-7.81-1.44-10.64-4.2-4.25-4.15-7.89-8.92-12.16-13.04-2.25-2.16-5.77-5.39-7.89-4.85-6.46,1.64-8.96-2.89-12.49-6.08-.72-.65-1.42-1.51-1.71-2.41-6.05-18.63-22.68-27.79-36.06-40.57-3.54,1.78-6.77,2.48-10.53-.74-2.03-1.74-6.28-1.16-9.53-1.17-33.78-.07-67.57-.04-101.35-.04-3.59,0-7.17,0-11.49,0v-34.21h67.21c0-12.75-.2-24.26,.06-35.75,.23-10.24-.9-20.24-3.53-30.11-.33-1.25-.53-2.61-.39-3.88,4.73-43.84,3.86-87.84,3.86-131.81,.01-74.5-.06-148.99,.09-223.49,.02-8.14,.25-15.92-7.38-21.27-.64-.45-.64-1.79-.94-2.71,0,0,.18-.17,.18-.17,2.16,.64,4.31,1.28,8.1,2.4-.67-3.67-.2-7.5-1.9-9.3-11.52-12.2-14.82-28.48-22.06-42.77-.89-1.76-1.88-3.47-3.22-5.94h-40.21c-1.16-11.76-.43-22.81-.49-35.04,10.22-.25,19.99-.5,29.75-.74,3.23-4.58,3.62-9.11-.28-13.54,0,0-.08,.04-.08,.04-1.8-10.4,1.59-20.02,5.18-29.35,3.17-8.22,5.85-16.43,6.85-25.17,.08-1.14,.16-2.27,.24-3.41,.7-.69,1.67-1.25,2.04-2.08,3.06-6.81,6-13.66,8.98-20.5,6.39-14.71,15.62-27.4,27.32-38.32,.95-.89,2.64-1.67,2.77-2.66,1.01-7.66,6.52-8.09,12.42-8.18,3.97-.07,6.12-2.09,6.11-6.17,.65-.59,1.31-1.17,1.97-1.76,3.63-.79,9.69-.63,10.44-2.55,2.14-5.49,6.84-5.02,10.95-6.47,.21-2.53,.39-4.74,.57-6.95,.46-.36,.99-.53,1.57-.5,8.91,.77,17.82,1.54,26.73,2.3,1.71-.02,3.42-.05,5.14-.07,7.88-2.17,15.52-2.4,22.82,2.18,2.2,1.38,4.81,2.26,7.35,2.93,6.87,1.8,13.67,5.09,22.27,1.46-1.42-3.08-2.76-5.88-4.03-8.72-2.93-6.56-5.82-13.13-8.73-19.69,0,0,.1-.05,.1-.05,5.98-2.14,4.84-6.33,2.76-10.45-3.85-7.65-4.87-15.69-3.92-24.08,.06-.54,.69-1.01,1.18-1.69,2.19,.84,4.44,1.7,7.17,2.75,1.12-3.38,2.31-6.1,2.9-8.95,2.13-10.27,3.45-20.65,9.28-29.91,3.08-4.88,4.31-10.88,6.77-16.19,3.43-7.41,6.35-15.3,11.09-21.81,7.33-10.07,15.62-19.53,24.27-28.51,5.34-5.54,8.62-10.75,4.32-19,24.26-8.48,47.9-16.75,72.16-25.24-4.94-6.27-11.94-1.14-18.19-5.55,14.99-3.94,29.22,.23,43.96-3.01-1.18-2.86-2.12-5.12-3.06-7.38-.03-.59,.09-1.15,.36-1.68,7.28,1.63,14.96,2.3,21.74,5.12,9.55,3.98,18.34,9.72,27.64,14.36,2.79,1.39,6.16,1.61,9.27,2.36,2.12,.57,4.22,1.26,6.38,1.68,3.06,.59,2.78-1.49,2.54-3.45,4.45-.59,7.3,1.95,10.32,4.74,7.17,6.61,14.64,12.9,21.98,19.33,.78,.35,1.56,.69,2.33,1.04,4.39,1.81,5.36-2.67,7.87-4.31,7.33-4.79,12.27-13.1,21.7-14.78,20.49-3.65,40.38-2.75,59.1,7.6,2,1.1,4.52,3.73,6.6-.18,5.4,3.43,10.81,6.86,17.94,11.39-2.26-7.69-4.02-13.67-6.02-20.46q5.72,2.11,14.13,16.19c3.56,5.94,7.22,11.82,10.81,17.74,3.77,6.2,7.52,12.41,11.27,18.62,3.57,5.93,7.59,11.66,10.54,17.89,3.08,6.52,5.26,13.48,7.58,20.34,2.16,6.38,3.97,12.88,6.89,19.22,5.76-17.71,13.87-35.2,1.35-53.36-.89-1.29-1.09-3.06-1.61-4.6,.25-.26,.49-.52,.74-.78,11.71,10.05,14.64,23.9,15.52,38.16,1.04,16.81-.39,33.59-3.4,50.21-.31,1.73-.04,3.57-.04,7.59,9.34-16.44,18.14-30.78,21.85-47.28,1.06-4.71-.9-10.16-1.79-15.22-.55-3.17-1.67-6.24-2.54-9.36,0,0,.07-.08,.07-.08,7.53,4.79,10.85,12.07,12.18,20.54,.61,3.88,1.26,7.76,2.02,12.39,12.5-14.52,14.76-31.13,13.5-50.08,2.24,1.86,3.37,2.8,5.46,4.53,.36-4.66,.67-8.68,.99-12.7,.3-.02,.59-.05,.89-.07,.69,5.15,1.38,10.3,2.33,17.41q3.15-9.86,.69-25.3c1.43-1.37,4.01-2.68,4.05-4.07,.36-12.87,.75-25.57-6.18-37.56-7.91-13.67-25.32-14.18-33.95-2.7-1.13,1.5-2.51,2.82-3.85,4.3-7.43-10.37-6-16.07,8.15-31.86-9.98-4.09-19.28-9.24-29.23-11.64-12.37-2.98-24.26,.45-34.56,8.31-1.53,1.17-3.04,2.38-5.75,2.82,.83-1.83,1.2-4.17,2.57-5.42,10.48-9.57,20.74-19.6,35.64-22.15,1.14-.19,2.13-1.24,3.18-1.9,1.99,0,3.98,0,5.97,0,5.69,1.3,11.5,2.2,17.03,3.98,10.97,3.54,22.11,6.85,32.6,11.54,17.58,7.85,27.14,23.66,36.39,39.48,1.99,3.4,3.74,6.94,6.68,12.43,.43-5.54,.7-9.04,1-12.86,14.31,11.64,17.04,28.56,11.82,71.04,4.85,3.12,9.69,6.23,15.84,10.19,1.13,2.26,.38,5.5-2.38,8.45-1.13,1.21-2.11,2.59-3.37,3.65-7.69,6.48-7.8,14.58-3.28,22.27,2.66,4.53,1.96,7.94,.35,11.91-5.82,14.32-14.84,26.49-25.34,37.67-2.69,2.86-5.17,5.92-7.74,8.89-.2,.42-.39,.83-.59,1.24,.15-.46,.3-.91,.46-1.37,5.98-2.31,11.96-4.62,18.55-7.17,.43,4.22-1.68,7.6-5.05,10.03-13.81,9.95-25.2,22.28-35.5,35.69-3.02,3.94-5.84,8.03-8.75,12.06-.55-.41-1.1-.82-1.65-1.24,4.87-1.19,9.73-2.37,14.6-3.56,0,0-.03-.04-.03-.04-2,2.64-4,5.27-6,7.91-.75,.47-1.51,.95-2.26,1.42,.78-.45,1.55-.9,2.33-1.34,1.27,.17,2.53,.33,6.24,.81-8.47,4.67-15.28,8.31-21.95,12.17-3.54,2.05-6.85,4.49-10.26,6.76-.95,.22-1.91,.44-2.86,.66,.19,.41,.38,.82,.58,1.23,.82-.56,1.63-1.13,2.45-1.69,3.28,0,6.57,0,10.06,0-7.68,4.61-15.06,9.05-23.94,14.38,11.84,8.89,24.56,12.02,35.06,19.03,10.41,6.94,20.66,14.12,31.74,21.7,5.3-7.11,10.2-13.66,15.08-20.24,9.86-13.27,19.5-26.71,29.64-39.75,6.04-7.77,12.28-15.76,24.36-16.84,1.24,3.47,2.46,7.09,3.83,10.66,5.8,15.11,11.68,30.19,17.45,45.31,1.88,4.94,4.15,9.85,5.16,14.98,3.12,15.77,8.29,30.91,13.22,46.14,.48,1.49,.99,3.43,.45,4.73-2.9,6.96-.32,12.61,3.06,18.64,2.62,4.66,2.17,10.57,6.55,14.91,3.86,3.82,6.5,8.88,9.7,13.38,.76,1.06,2.5,2.3,2.29,3.04-2.23,7.93,6.33,11.62,6.69,18.96-5.92,8.16-5.33,17.96,.34,25.72,5.79,7.93,6.1,15.82,2.58,23.11-3.92,8.12-1.7,13.03,4.17,18.01,3.82,3.24,8.55,6.25,2.48,11.77-.63,.57,.21,2.95,.63,4.41,.71,2.49,1.62,4.93,2.34,7.06-3.12,3.97-5.84,7.42-9.13,11.61-3.27-.78-7.04-1.68-10.82-2.58-.35-.36-.7-.72-1.05-1.08,.16,.55,.33,1.11,.49,1.66,3.05,6.45,6.11,12.91,9.55,20.19-.69,.5-1.86,1.34-3.48,2.5,1.3,7.47,10.07,12.35,8.37,21.06-.43,2.18-1.13,4.3-1.86,7.03-3.58-.73-6.65-1.35-9.73-1.97-.44-.19-.88-.39-1.32-.59,.21,.42,.42,.85,.64,1.27,1.71,12.51,2.85,13.77,15.64,16.97,.46,5.8-3.97,8.67-7.57,11.73-11.94,10.11-12.08,10.34-5.72,24.7,.39,.88,.6,1.84,1.11,3.43-3.71,.45-7.16,.86-11.27,1.36-1.86,3.04-3.97,6.38-5.93,9.79-.45,.77-.4,1.83-.73,3.54,4.57,0,8.79,.07,13-.02,6.35-.13,12.46-.05,17.89,4.32,1.78,1.44,4.95,1.44,7.51,1.57,4.63,.23,9.28-.09,13.91,.1,2.95,.12,6.14,.09,8.77,1.21,9.03,3.85,19.59,6.35,26.34,12.76,9.2,8.75,21.16,11.43,30.86,18.58,13.52,9.97,27.61,19.18,41.89,29.01-1.49,2.42-2.29,3.74-3.95,6.44,4.61,4.17,9.42,8.7,14.43,13,10.81,9.31,20.71,19.4,28.3,31.61,1.37,2.2,3.5,3.96,5.38,5.82,6.36,6.29,8.33,14.11,7.44,22.64-.27,2.6-2.18,5.04-3.45,7.78,6.05,17.05,12.45,34.42,18.3,51.96,1.74,5.24,2.48,10.97,2.73,16.51,1.01,22.13,1.61,44.27,2.44,66.41,.33,8.89-2.09,16.7-6.8,24.38-2.98,4.85-3.95,11.02-5.37,16.71-.71,2.83-.25,5.94-.57,8.89-2.99,27.98-16.35,50.57-36.65,69.35-4.95,4.58-6.82,10.33-8.69,16.35-2.05,6.63-2.85,13.55-11.41,16.56-6.08,2.14-9.99,9.68-18.05,7.92-.28-.06-.82,.06-.91,.24-4.51,9.8-16.42,9.37-22.97,16.72-4.77,5.34-11.14,9.28-16.89,13.71-11.26,8.69-22.58,17.31-33.91,25.9-2.74,2.08-5.66,4.19-7.77-.45-12.26,5.86-24.46,11.68-36.65,17.52-18.5,8.86-38.01,10.69-58.15,8.63-13.85-1.42-25.05-7.93-34.77-17.42-4.88-4.77-11.37-8.52-11.85-16.36-.18-2.91,.59-5.87,1.64-8.67,1.67,11.5,1.66,11.55,13,13.94,10.9,2.29,20.89,.74,29.89-6.49,5.9-4.74,12.4-8.75,19.09-13.4-8.12-4.37-15.45-9.23-17.41-20.78,3.42,2.11,5.67,3.58,7.99,4.93,7.85,4.55,14.15,4.05,20.8-2.22,2.85-2.68,5.19-5.99,7.37-9.28,9.27-14.02,16.39-29.54,17.06-46.04,.6-14.69,6.18-27.81,8.14-41.88,.43-3.06,.66-6.16,.23-9.54-9.25,13.74-19.46,26-34.56,33.17-.3-.29-.59-.57-.89-.85Zm-441.36-743.4s.49,.64,.49,.64c-.53,1.87-.81,3.86-1.65,5.58-3.7,7.61-5.59,15.62-4.73,24.02,1.12,10.82,2.63,21.59,4.17,32.36,.42,2.94,1.56,5.78,2.94,10.71,1.51-9.99-.87-17.96,3.07-27.76,2.84,5.78,4.78,9.72,6.72,13.67,2.8-16.04,4.34-31.8,5.07-47.59,.71-15.28,4.2-29.28,14.21-41.34,4.41-5.32,8.31-11.14,11.89-17.07,6.93-11.45,9.06-27.68,5.18-38.01-2.03,4.6-3.9,8.83-6.43,14.55-.77-2.71-1.26-3.44-1.08-3.93,5.19-14.27,.61-26.27-7.8-37.94-7.68-10.66-17.48-16.63-30.43-14.42-14.14,2.42-26.77,8.38-32.14,23.19-3.93,10.84-5.21,22.22-5.02,35.88,6.21-9.13,8.96-18.47,17.1-24.06-5.91,13.16-7.82,26.99-10.11,40.83-2.33,14.12-4.45,27.96,.82,42.86,4.12-6.28,7.54-11.49,10.96-16.7,.53,.45,1.06,.9,1.59,1.36-6.46,17.08-4.91,34.96-5.65,52.69,2.75-3.56,4.48-7.43,6.7-10.99,4.13-6.6,6.75-14.39,14.12-18.54Zm-71.83,227.09c.4-.69,.81-1.38,1.21-2.08-1.57-1.09-3.08-2.27-4.72-3.24-10.53-6.24-21.16-12.31-31.6-18.69-11.94-7.3-21.06-16.5-23.67-31.33-1.22-6.93-5.28-13.38-8.15-20-4.06-9.38-9.68-18.4-11.89-28.19-2.37-10.49-5.33-20.53-10.75-29.6-6.73-11.26-10.88-23.29-13.6-35.98-.97-4.51-2.28-8.96-3.63-13.38-3.5-11.43-11.7-19.03-21.46-25-6.7-4.1-13.94-3.68-20.9-.21-15.25,7.61-25.65,19.48-31.01,35.69-3.12,9.42-2.98,18.71,1.28,28.75,3.22,0,6.47,0,9.72,0,11.26,0,22.52,.19,33.77-.08,5.07-.13,7.65,1.57,9.39,6.54,6.04,17.15,13.22,33.91,18.77,51.21,3.93,12.27,13.97,19.07,21.33,29.6,.65-3.35,1.01-5.22,1.46-7.59,5.88,4.52,8.76,10.45,11.13,16.6,4.76,12.37,12.74,21.21,25.35,26.23,11.05,4.39,21.61,10,32.49,14.84,5.04,2.25,10.32,3.95,15.5,5.91Zm197.08-365.2c.65,.16,1.29,.33,1.94,.49,2.44-3.39,5.34-6.54,7.23-10.2,11.78-22.83,10.09-45.6,.62-68.94-6.44-15.88-19.32-20.23-34.06-23.85,.11,1.58-.04,2.31,.24,2.78,.83,1.42,1.73,2.83,2.79,4.08,7.87,9.34,13.08,19.9,14.44,32.12,1.89,17.07,3.61,34.17,5.41,51.25,.43,4.09,.92,8.18,1.39,12.27Zm-325.42,433.24q1.82,5.88,9.04,2.31c-3.39-.87-5.97-1.53-9.04-2.31Zm553.25-505.37l-.28,.56,.45,.04-.17-.6Z"/>
  <path class="cls-4" d="M498.74,1005.1c-1.28,6.79-2.31,13.63-3.9,20.35-1.37,5.75-3.38,11.34-5.49,18.27,1.26,3.03,7.04,5.85,4.85,11.65-.75-.08-1.48,.06-1.91-.24-9.83-6.77-14.93-5.52-17.75,5.78-1.61,6.48-2.59,14.18-.6,20.27,3.57,10.91,5.47,21.71,5.18,33.06-.05,1.79,.4,3.59,1.67,5.51,8.37-11.19,6.12-24.99,9.42-37.36,.59,.38,1.53,.66,1.58,1.05,2.13,17.17,2.96,34.27-4.12,50.67-1.03,2.38-2.3,5.02-4.23,6.58-4.33,3.51-7.11,7.39-7.65,13.19-.21,2.26-2.54,4.58-4.38,6.39-4.45,4.39-6.86,8.95-2.47,14.54-6.29,7.02-14.19,5.54-21.68,5.58-6.48,.04-28.48,7.25-34.49,11.79,2.79,1.03,5.07,1.88,7.57,2.8-.27,.81-.38,1.81-.88,2.54-6.5,9.47-2.96,17.52,8.42,18.44,5.78,.47,11.62,.08,17.79,1.6-6.34,3.42-12.67,6.83-20.14,10.86-4.55-1.06-10.63-2.64-16.78-3.85-3.55-.7-7.22-1.17-10.82-1.07-4.56,.12-9.27,4.34-10.01,8.26-.78,4.12,2.81,10.16,7.46,11.64,5.35,1.7,10.75,3.04,16.44,.58,2.93-1.26,6.29-1.53,9.45-2.25l-.08-.07c-6.52,7.19-15.5,9.62-24.31,12-6.04,1.63-11.21-1.23-14.62-6.15-3.69-5.31-8.45-6.79-14.52-6.2-12.54,1.23-25.02,.51-37.38-1.96-2.64-.53-5.18-1.54-7.76-2.33,.1-.86,.19-1.73,.29-2.59,4.04-.34,8.14-.35,12.1-1.1,4.45-.84,8.89-2.07,13.1-3.72,1.43-.56,3.08-3.01,2.95-4.44-.12-1.36-2.26-3.14-3.85-3.63-4.72-1.45-9.59-3.15-14.45-3.33-14.92-.53-27.98-7.04-41.61-11.84-4.55-1.6-9.46-2.74-14.26-3-14.48-.79-29.3,.64-43.37-2.02-11.69-2.21-24.07-3.51-34.95-9.43-.04-.98-.08-1.97-.12-2.95,3.06-.02,7,2.42,8.15-2.93,1.48-.21,2.96-.43,4.43-.64,15.91,5.52,31.46,4.1,47.92-1.8-6.25-8.53-12.49-14.98-21.09-17.74-7.12,2.7-13.65,5.18-20.65,7.83-3.73-5.19-5.97-11.01-3.79-17.27,1.56-4.49-.04-7.14-3.22-9.24-4.23-2.79-8.12-6.74-14.58-6.32-1.08,5.4-2.07,10.37-3.07,15.34l.02-.02c-7.41-2.19-10.88-8.44-11.04-14.87-.2-8.17-2.28-14.76-7.76-20.57-.84-.89-1.02-2.4-1.5-3.63-.61-.83-1.22-1.65-1.83-2.48,0,0,.04,.05,.04,.05-.68-.67-1.36-1.33-2.04-1.99,0,0,.03,.04,.03,.04-.71-.59-1.42-1.18-2.13-1.76,0,0-.12-.1-.12-.1-.63-.62-1.27-1.24-1.9-1.86,0,0-.11-.12-.11-.12-.63-.62-1.25-1.24-1.88-1.86,0,0-.12-.13-.11-.13-.62-.62-1.25-1.24-1.88-1.85,0,0-.12-.14-.11-.14-.62-.65-1.24-1.3-1.86-1.95,0,0-.03-.09-.03-.09-.63-.73-1.27-1.46-1.9-2.18-.54-.72-1.07-1.44-1.61-2.16-.85-1.15-1.7-2.29-2.55-3.44,0,0-.17-.15-.16-.15,.3-1.73,.58-3.45,.87-5.17,4.21,2.29,8.43,4.59,13.16,7.16,4.04-3.68,6.95-8.71,14-9.03,6.62-.29,10.17,3.16,14.28,6.74,.06,.7,.12,1.41,.18,2.11q-10.54-.08-8.68,8.04v.64s.67,.09,.67,.09c.17,.46,.48,.79,.94,.97l.21,.83,.83,.2c.24,.47,.61,.8,1.11,.98v.54s.43-.18,.43-.18c2.32,3.13,4.65,6.27,6.97,9.4,2.35,.93,4.7,1.86,6.9,2.73,2.15,7.51,5.45,14.02,13.81,15.08,5.85,.74,6.7-4.59,7.43-9.32,6.45,3.63,8.98,8.72,10.71,14.57,1.61,5.45,3.58,10.85,9.18,13.81,1.69-6.96,3.21-13.27,4.7-19.41q-18.28-18.83-43.35-19.18c-.66,0-1.32-.06-1.98-.1-.21-5.97-.42-11.94-.63-17.91,.1-14.56-.9-29.22,.56-43.64,2.09-20.68,5.43-41.28,9.25-61.72,3.63-19.45-1.73-35.15-16.26-48.23-3.03-2.73-5.67-3.62-9.76-2.58-5.71,1.45-11.66,2.49-17.54,2.62-11.32,.25-17.88-6.08-18.85-17.29-1.1-12.65,4.64-22.27,13.61-30.42,2.86-2.6,5.81-5.1,8.83-7.74-5.26-10.1-12.9-17.11-20.6-23.64-9-7.64-10.57-16.06-6.31-26.42,.88-2.13,1.62-4.38,2-6.64,1.08-6.28,5.04-9.85,10.73-11.88,8.11-2.89,16.2-5.81,24.36-8.56,8.15-2.74,14.99-.17,19.19,7.37,4.83,8.67,9.61,17.38,13.98,26.29,2.25,4.6,4.7,6.09,10.08,5.03,8.66-1.69,17.63-1.74,26.37-3.08,7.39-1.13,12.29,2.97,18.14,8.5v-278.43c-21.76-1.5-43.82,.28-66.51-1v-34.27c2.93-.21,5.8-.6,8.67-.6,124.94-.02,249.88-.16,374.81,.18,19.15,.05,38.41,1.41,57.41,3.84,29.44,3.76,50.67,21.44,53.88,54.17,4.63,47.19-10.91,87.42-42.42,121.64-27.26,29.62-61.7,48.65-99.07,62.59-28.94,10.79-58.9,17.64-89.46,21.97-3.91,.55-7.77,1.5-12.77,2.48-.21,3.32-.42,6.71-.67,10.73,12.9,1.55,25.04,2.6,37.03,4.53,40.68,6.57,79.28,19.3,113.24,43.05,51.3,35.88,83.47,85.08,97.73,145.96,4.61,19.68,7.41,39.64,8.23,59.86,.1,2.58,.52,5.14,.91,8.86h36.3v33.96h-210.67c0-5.87,0-11.4,0-16.93,0-5.21,0-10.41,0-16.76h31.71c0-11.64,.61-22.16-.13-32.58-1.36-19.12-2.91-38.27-5.49-57.25-4.57-33.54-15.83-64.81-34.14-93.44-22.9-35.8-55.82-56.63-97.06-64.92-8.09-1.63-16.35-2.45-24.56-3.39-2.5-.29-5.09,.26-8.26,.46v48.34c2.35,.39,4.73,.34,6.73,1.19,6.32,2.69,13.83,4.36,18.46,8.89,9.52,9.34,20.44,16.7,30.67,25.03,9.12,7.43,15.65,16.99,21.52,27.04,1.6,2.74,3.28,5.44,5.32,8.79,7.07-6.94,7.7-15.18,8.95-24.08,4.33,5.65,2.28,11.38,2.3,16.7,.02,3.24-.69,6.64-1.82,9.7-2.08,5.65-3.52,11.19-.48,16.59-4-1.28-8.39-4.26-10.69-3.1-5.94,2.97-7.76,9.24-8.07,15.74,3.79,.44,7.48,.1,10.36,1.45,2.29,1.07,3.59,4.23,5.91,7.21-2.42,1.2-3.7,2.24-5.11,2.45-4.68,.72-5.77,3.91-5.81,7.87-.06,6.27-.02,12.54-.02,19.57,6.35-1.48,10.77-3.9,13.38-9.41,1.34-2.83,2.53-6.4,6.89-6.02l-.09-.08Zm-98.48-235.39c4.64-.34,7.89-.56,11.14-.82,49.69-3.96,89.75-25.72,119.33-65.78,16.95-22.96,25.66-49.14,25.39-77.83-.22-24.32-13.91-40.67-37.65-45.38-7.09-1.4-14.4-2.2-21.62-2.26-29.12-.26-58.24-.13-87.36-.1-2.89,0-5.78,.32-9.24,.53v191.64Zm-.64,113.3c0,4.98,0,8.17,0,11.36,0,19.21,.18,38.42-.08,57.62-.13,9.42-.81,18.71,8.5,24.8,.75,.49,1.08,1.64,1.58,2.49,9.3,15.99,18.58,32,27.93,47.97,1.34,2.29,1.53,6.12,6.46,5.04,.44-10.24-3.82-20.87,2.01-31.38,4.89,.11,10.07-.58,11.06-6.82,.98-6.23-3.15-9.6-7.86-11.65-.81-7.6-1.44-14.5-2.32-21.37-.91-7.18-3.11-9.38-10.16-10.65-2.95,2.63-1.34,8.75-7.31,9.67-.38-6.05-2.6-12.46,1.85-17.25,4.59-4.95,10.36-.62,15.77,.67,3.8-6.86,3.25-13.4-.18-19.2-9.61-16.26-21.83-29.41-44.04-31.36,4-1.89,6.39-3.02,9.84-4.65-4.46-1.8-7.93-3.21-13.05-5.28Zm-127.56-.89c-8.87,11.45-8.54,19.82,0,27.67v-27.67Z"/>
  <path class="cls-4" d="M3135.45,576.11h-48.53c-1.11-11.34-.66-22.01-.31-33.31h251.5v32.89c-17.83,.88-35.9-.13-54.56,.57-.35,2.98-.89,5.48-.89,7.99-.03,126.22-.31,252.44,.18,378.66,.15,38.75,14.78,72.24,42.55,99.6,8.82,8.69,19.05,15.64,30.7,19.8,29.51,10.53,55.59,2.65,78.34-17.05,22.31-19.33,32.83-45.32,37.24-73.82,1.81-11.71,2.4-23.72,2.42-35.59,.17-123.9,.11-247.8,.09-371.7,0-3.22-.33-6.44-.55-10.65h-56.92c-.82-12.02-.55-23.02-.19-34.67h251.47v34.29h-45.12c-.2,5.03-.5,9.18-.5,13.33-.03,119.59-.35,239.19,.18,358.78,.16,36.49-12.42,67.08-36.46,93.77-30.65,34.03-68.76,56.75-110.91,73.24-29.79,11.65-60.64,19.1-92.74,19.77-35.62,.74-69.6-7.74-102.54-20.54-30.76-11.95-59.3-28.01-84.76-49.12-18.74-15.55-34.93-33.42-46.52-55.08-8.92-16.66-13.29-34.3-13.26-53.34,.19-121.25,.09-242.5,.09-363.75v-14.07Z"/>
  <path class="cls-4" d="M1306.91,659.02h38.26c1.18,11.19,.45,21.92,.48,32.45-7.46,2.19-188.13,2.96-203.49,.94v-33.16h24.95c-1.05-5.05-1.58-8.85-2.63-12.5-5.36-18.75-14.59-35.4-27.28-50.21-16.77-19.58-38.85-28.2-63.71-30.46-14.18-1.29-28.42-1.04-42.4,2.78-22.82,6.23-39.83,20.15-53.41,39.03-15.19,21.11-23.55,44.98-29.31,70.02-7.43,32.28-7.42,64.99-5.96,97.8,.07,1.64,.36,3.29,.73,4.9,.21,.94,.77,1.79,1.59,3.6,2.8-1.95,5.48-3.61,7.92-5.56,43.03-34.33,92.37-48.34,146.71-43.37,36.88,3.37,69.77,17.69,97.39,42.88,12.88,11.75,22.69,25.83,29.84,41.74,1.47,3.28,3.06,6.52,4.87,10.36h32.32c0,11.29,0,21.75,0,32.22-6.74,2.22-184.52,3.16-202.91,.98v-33.06h28.44c-.51-3.27-.54-5.46-1.2-7.44-4.55-13.63-12.87-24.62-24.4-33.03-8.76-6.39-18.49-10.18-29.68-9.32-29.36,2.24-56.57,10.05-79.63,29.42-5.75,4.83-8.24,9.4-6.87,17.74,5.89,36,15.18,71.1,25.55,105.99,7.07,23.77,14.33,47.63,15.93,72.53,1.63,25.36,4.27,50.93-4.38,75.78-.62,1.79-.61,3.79-.86,5.49,19.32,11.74,73.32,7.76,105.06-8.78,43.02-22.42,64.4-60.83,77.04-107.4h-40.3v-32.44c6.72-2.01,199.48-2.7,213.63-.64v32.46c-6.71,.21-13.56,.96-20.31,.49-6.99-.49-10.57,2.53-14.07,8.27-33.91,55.61-78.92,99.33-138.37,127.18-30.67,14.37-62.82,22.22-96.94,22.03-39.15-.22-78.04-2.57-116.47-10.43-4.53-.93-8.99-2.22-13.46-3.43-1.54-.42-3-1.13-4.57-1.74-.13-1.7-.48-3.03-.28-4.27,5.3-32.9-3.61-62.5-22.17-89.23-13.2-19.01-27.76-37.08-42.01-55.35-16.91-21.69-33.31-43.7-47.46-67.34-16.89-28.24-25.16-58.82-25.81-91.58-.76-38.3,2.6-76.08,15.59-112.42,19.44-54.37,55.23-95.3,105.09-123.7,34.95-19.9,73.2-30.61,112.99-35.28,18.68-2.19,37.65-4.03,56.38-3.33,43.93,1.62,86.85,8.78,126.69,29.02,40.39,20.51,71.41,49.93,89.29,92.17,.89,2.11,2.05,4.12,3.61,7.21Z"/>
  <path class="cls-4" d="M4774.59,849.44c-.43-69.19,20.28-120.96,54.25-167.99,22.59-31.27,49.54-58.63,77.87-84.7,14.62-13.45,28.67-27.54,43.59-40.65,10.67-9.38,22.2-17.81,33.65-26.25,4.48-3.3,9.58-5.99,14.76-8.08,8.99-3.62,17.41-2.98,24.38,4.91,4.82,5.46,9.85,10.77,15.14,15.76,26.75,25.2,53.23,50.7,80.55,75.27,29.9,26.89,58.04,55.18,80.31,88.93,19.1,28.94,27.89,60.99,30.94,95.19,2.5,27.98,.7,55.53-5.7,82.75-8.88,37.79-26.6,71.6-51.87,100.57-22.82,26.15-48.33,49.96-72.91,74.55-15.69,15.69-31.79,30.98-47.81,46.33-7.41,7.1-15.02,14-22.67,20.84-2.7,2.42-5.72,4.51-8.75,6.53-10.12,6.76-20.71,7.38-30.69,.4-13-9.1-25.91-18.45-38.04-28.65-28.38-23.86-56.71-47.83-84.28-72.62-36.99-33.25-66.28-72.02-81.82-120.06-7.71-23.84-10.67-48.36-10.91-63.03Zm178.39-220.76c-4.08,.73-8.62,1.25-13,2.39-59.11,15.39-106.29,94.86-75.9,162.39,12.37,27.48,28.76,52.26,48.62,74.57,22.22,24.97,45.72,48.79,68.72,73.06,13.44,14.18,27.09,28.15,40.45,42.4,11.3,12.05,19.37,25.94,22.57,42.37,.41,2.1,.93,4.18,1.51,6.82,2.9-1.18,5.04-1.97,7.11-2.9,23-10.34,42.54-25.42,59.74-43.69,23.1-24.54,37.33-52.29,35.63-87.38-.91-18.84-5.43-35.73-15.42-51.49-12.1-19.11-26.77-36.17-41.94-52.83-31.43-34.52-63.19-68.75-94.42-103.45-10.39-11.54-20.06-23.8-29.16-36.38-5.55-7.67-9.39-16.58-14.53-25.89Z"/>
  <path class="cls-4" d="M2006.78,839.45c-.31-61.13,22.16-113.93,57.87-161.79,12.04-16.14,25.26-31.63,39.53-45.82,28.18-28,57.08-55.29,86.49-82,10.92-9.92,23.6-18.2,36.36-25.74,13.51-7.98,21.04-6.43,31.62,5.26,32.08,35.46,68.29,66.49,103.86,98.24,23.02,20.55,43.85,43.2,62.16,68.14,19.6,26.71,31.91,56.4,36.36,89.13,4.76,35.03,4.27,70-5.05,104.37-10.86,40.06-30.27,75.92-59.05,105.51-41.79,42.96-85.28,84.27-128.2,126.12-4.94,4.82-10.61,9.01-16.37,12.86-8.98,6.01-18.81,7.16-28.03,1.05-11.56-7.67-23.1-15.55-33.66-24.51-34.08-28.91-68.91-57.1-101.21-87.92-39.76-37.94-68.9-83.02-78.08-138.59-2.42-14.63-3.11-29.54-4.6-44.32Zm180.12-210.28c-13.25,.51-26.82,4.85-38.75,12.33-25.33,15.87-42.78,38.06-53.17,66.06-10.77,29.04-9.93,57.58,2.14,86.04,12.58,29.65,31.06,55.5,52.37,79.2,22.58,25.11,46.44,49.07,69.69,73.57,13.22,13.93,26.57,27.75,39.48,41.97,9.51,10.48,15.75,22.81,18.22,36.92,.37,2.13,1.57,4.11,2.79,7.18,6.85-3.26,13.24-5.91,19.26-9.23,17.56-9.67,33.13-22.08,46.51-36.9,7.94-8.79,14.94-18.57,21.47-28.49,12.36-18.78,14.39-39.88,13.82-61.9-.43-16.81-3.9-32.35-13.44-45.94-11.2-15.96-22.56-31.98-35.46-46.55-30.07-33.98-61.16-67.06-91.71-100.61-9.59-10.53-18.92-21.29-28.14-32.14-10.54-12.4-19.18-26.05-25.07-41.52Z"/>
  <path class="cls-4" d="M3906.98,1082.4h67.14v-504.01c-2.51-.29-5.02-.82-7.53-.83-17.23-.06-34.47-.06-51.7,.04-3.97,.02-7.96,.26-11.89,.75-18.09,2.27-30.92,11.85-40.06,27.58-10.77,18.54-17.2,38.66-23.24,58.95-5.76,19.33-10.61,38.94-16.61,58.2-4.15,13.32-12.64,17.2-26.21,14.04-6.48-1.51-10.78-5.29-12.63-11.33-1.83-5.97-3.77-12.21-3.88-18.37-.72-39.57-12.85-76.05-28.95-111.6-3.68-8.11-6.92-16.5-9.49-25.03-5.17-17.17,4.58-33.69,21.8-38.52,9.65-2.71,19.03-1.36,28.41,.87,32.05,7.65,64.58,10.68,97.47,10.49,86.8-.49,173.6-1.04,260.4-1.38,12.56-.05,25.13,1.2,37.7,1.32,32.88,.31,65.42-2.79,97.46-10.5,9.37-2.25,18.79-3.48,28.41-.7,16.33,4.71,26.46,20.58,21.49,36.89-4.41,14.5-10.61,28.48-16.49,42.49-11.98,28.56-21.19,57.71-22.22,89.03-.24,7.2-1.58,14.49-3.42,21.48-2.39,9.12-8.62,15.02-18.28,15.79-9.74,.78-16.8-4.25-20.27-12.98-3.64-9.18-6.4-18.76-8.88-28.34-6.23-24.02-11.77-48.28-22.32-70.88-3.89-8.33-8.85-16.29-14.18-23.81-12.43-17.54-31.12-22.93-51.21-23.95-17.19-.87-34.45-.37-51.68-.43-.91,0-1.83,.52-3.3,.97v503.66h66.74v32.7c-7.08,2.2-238.88,3.21-262.07,1.02-1.34-10.5-.44-21.23-.51-33.6Z"/>
  <path class="cls-4" d="M1715.69,1082.41h36.77v33.71h-171.66c-23.34-89.31-45.94-179.28-69.03-269.12-23.03-89.61-45.83-179.28-68.93-269.73h-67.66c-1.9-11.97-.57-22.97-.97-34.53h257.7v34.33c-18.31,.54-36.69-.13-56.53,.41,36.55,147.7,72.74,293.97,109.41,442.16,1.65-3.4,2.73-5.12,3.36-7,25.1-74.69,44.33-151,63.68-227.31,11.13-43.9,23.13-87.6,36.08-131,8.04-26.93,17.93-53.47,34.31-76.76,6.43-9.15,13.72-17.9,21.7-25.73,19.67-19.28,44.13-25.06,70.61-21.06,14.63,2.21,28.85,7.16,43.25,10.91,1.59,.42,3.15,1.03,4.67,1.66,12.47,5.17,13.07,6.9,7.56,18.92-7.56,16.5-10.11,34.2-11.53,52.02-1.33,16.8-1.78,33.67-2.64,50.98-6.03,2.56-11.92,1.14-17.7-1.73-6.22-3.1-12.38-6.33-18.65-9.3-17.3-8.2-34.86-6.59-52.14-.33-14.39,5.21-24.09,15.96-31.21,29.21-9.91,18.48-17.23,38.05-22.57,58.2-27.59,104.26-59.98,207.11-90.37,310.55-2.24,7.61-4.53,15.21-6.63,22.87-.58,2.12-.53,4.41-.88,7.66Z"/>
  <path class="cls-4" d="M2621.95,577.56h-66.41c-1.6-11.6-.54-22.69-.7-33.58,7.44-2.18,245.79-2.94,262.69-.83,.66,10.83,.39,21.87,.11,34.22h-67.11v504.81c12.51,0,24.66,.17,36.81-.04,18.54-.33,37.13-.3,55.61-1.6,14.13-.99,28.27-3.08,42.14-5.94,18.61-3.84,32.18-15.23,41.03-31.85,10.69-20.08,18.19-41.04,17-64.43-.67-13.17-.12-26.39-.12-40.62,36.36,6.43,72.25,10.98,109.66,8.38,1.03,5.04,2.57,9.74,2.86,14.53,1.78,28.79-1.21,56.84-13.8,83.29-13.05,27.42-35.65,43.74-63.15,54.28-23,8.82-46.88,14.21-71.39,16.27-15.48,1.31-31.06,2.08-46.59,2.11-98.43,.2-196.86,.12-295.3,.14-2.95,0-5.9,0-10.08,0-.91-11.27-.41-22-.3-33.87,22.47-1.09,44.5,.2,67.03-.77v-504.5Z"/>
  <path class="cls-2" d="M4700.05,577.68h-66.28v504.64h66.81v32.67c-7.05,2.14-241.57,3.07-262.25,.92-.72-10.52-.33-21.24-.16-33.31h67.03v-504.7h-66.41c-1.58-11.98-.58-23.06-.72-33.96,7.47-2.13,246.39-2.85,261.41-.94,2.03,6.88,2.39,21.95,.55,34.68Z"/>
  <path class="cls-4" d="M498.83,1005.18c.24-.34,.48-.69,.72-1.03,0,.21,.07,.51-.03,.61-.2,.18-.51,.23-.78,.34,0,0,.09,.08,.09,.08Z"/>
  <path class="cls-3" d="M5997.36,392.88c.22-.47,.45-.94,.67-1.41-.24,.46-.47,.92-.71,1.37,0,0,.03,.04,.03,.04Z"/>
  <path class="cls-3" d="M5350.96,633.46c-.42-.3-.84-.61-1.27-.91,.48,.25,.96,.49,1.44,.74,0,0-.17,.17-.17,.17Z"/>
  <polygon class="cls-3" points="6034.53 1186.79 6033.87 1187.12 6033.91 1186.39 6034.53 1186.79"/>
  <path class="cls-3" d="M6126.67,1203.95c.58-.73,1.15-1.46,1.73-2.19,.29,.28,.59,.56,.89,.85-.92,.41-1.84,.81-2.77,1.22,0,0,.15,.13,.15,.13Z"/>
  <path class="cls-3" d="M6126.52,1203.82c-.19,.35-.39,.69-.58,1.04,.01-.17-.04-.42,.05-.51,.18-.18,.45-.27,.69-.4,0,0-.16-.13-.16-.13Z"/>
  <path class="cls-4" d="M421.27,1241.74c.16-.48,.32-.95,.48-1.43-.19,.45-.38,.9-.57,1.36,0,0,.08,.07,.08,.07Z"/>
  <path class="cls-1" d="M5991.4,400.83c-.78,.45-1.55,.9-2.33,1.34,.75-.47,1.51-.95,2.26-1.42,0,0,.07,.08,.07,.08Z"/>
  <path class="cls-1" d="M5965.08,1275.1c.43-.77,.87-1.55,1.3-2.32,.21,.22,.64,.55,.59,.66-.35,.77-.8,1.49-1.22,2.23,0,0-.67-.56-.67-.56Z"/>
  <path class="cls-1" d="M6148.04,689.5c-.16-.55-.33-1.11-.49-1.66,.35,.36,.7,.72,1.05,1.08,0,0-.56,.59-.56,.59Z"/>
  <path class="cls-1" d="M6150.2,738.99c-.21-.42-.42-.85-.64-1.27,.44,.2,.88,.4,1.32,.59,0,0-.68,.68-.68,.68Z"/>
  <path class="cls-1" d="M6048.8,1160.41c-.43-.43-.85-.86-1.28-1.29,.73,.14,1.46,.28,2.19,.41-.3,.29-.6,.59-.91,.88Z"/>
  <path class="cls-1" d="M5850.18,1341.08c.21-.42,.41-.84,.62-1.25-.21,.42-.41,.84-.62,1.26h0Z"/>
  <path class="cls-3" d="M5687.04,458.36c.63-.5,1.24-1.02,1.91-1.45,.04-.02,.52,.64,.79,.98-.74,.36-1.49,.73-2.23,1.1,0,.01-.48-.63-.48-.63Z"/>
  <path class="cls-3" d="M5670.28,433.83c.61-.97,1.21-1.94,1.82-2.92,.42,.19,.83,.38,1.25,.57-.5,1.23-.99,2.46-1.48,3.69-.53-.45-1.05-.9-1.58-1.35Z"/>
  <path class="cls-3" d="M5670.86,362.72c.63-.32,1.26-.63,1.89-.95-.24,.69-.49,1.38-.73,2.07-.38-.38-.76-.76-1.15-1.13Z"/>
  <path class="cls-3" d="M5672.01,363.85c-.69,.33-1.38,.66-2.07,.99,.31-.7,.61-1.41,.92-2.11,.39,.37,.78,.74,1.15,1.13Z"/>
</svg>